<?xml version="1.0" encoding="utf-8"?>
<!-- Generator: Adobe Illustrator 27.5.0, SVG Export Plug-In . SVG Version: 6.00 Build 0)  -->
<svg version="1.1" id="Layer_1" xmlns="http://www.w3.org/2000/svg" xmlns:xlink="http://www.w3.org/1999/xlink" x="0px" y="0px"
	 viewBox="0 0 96 48" style="enable-background:new 0 0 96 48;" xml:space="preserve">
<style type="text/css">
	.st0{fill:#2E353F;}
	.st1{fill:#E8D433;stroke:#E8D433;stroke-width:2;stroke-miterlimit:10;}
	.st2{fill:#FFFFFF;}
</style>
<circle class="st0" cx="24" cy="24" r="24"/>
<g>
	<g>
		<path class="st1" d="M11.2,31.5v-1.7l2.2-2.1c5.3-5.1,7.7-7.7,7.7-10.9c0-2.1-1-4.1-4.1-4.1c-1.9,0-3.5,1-4.4,1.8l-0.9-2
			c1.4-1.2,3.5-2.1,5.9-2.1c4.5,0,6.4,3.1,6.4,6c0,3.8-2.8,6.9-7.2,11.2l-1.7,1.5v0.1h9.3v2.3H11.2z"/>
	</g>
</g>
<g>
	<g>
		<path class="st1" d="M33.7,37.1v-5.7H24v-1.9l9.3-13.3h3v12.9h2.9v2.2h-2.9v5.7H33.7z M33.7,29.3v-6.9c0-1.1,0-2.2,0.1-3.3h-0.1
			c-0.6,1.2-1.2,2.1-1.7,3.1l-5.1,7.1v0.1H33.7z"/>
	</g>
</g>
<g>
	<path class="st2" d="M51,17.9c2.1-1.2,4.7-1.8,6.9-1.8c4.7,0,6.7,1.8,5.8,6.2l-0.2,1.1c-0.9,4.4-3.4,6.3-7.4,6.3
		c-1,0-1.9-0.2-2.5-0.5l-1.1,5.5h-4.9L51,17.9z M58.8,22.2c0.3-1.6,0-2.5-1.8-2.5c-0.5,0-1.1,0.1-1.6,0.3l-1.2,5.8
		c0.5,0.3,1,0.4,1.7,0.4c1.5,0,2.2-0.9,2.6-2.5L58.8,22.2z"/>
	<path class="st2" d="M77.4,29.3h-3.7l-0.3-1.1c-0.9,0.9-2.2,1.4-3.6,1.4c-4,0-5.5-1.8-4.5-6.3l0.2-1.1c0.9-4.4,3.5-6.2,8.1-6.2
		c2.2,0,4.5,0.6,6.1,1.8L77.4,29.3z M70.2,23.5c-0.3,1.6-0.3,2.5,1.3,2.5c0.8,0,1.4-0.3,1.9-0.8l1.1-5.4c-0.5-0.2-1-0.3-1.5-0.3
		c-1.6,0-2.2,0.9-2.6,2.5L70.2,23.5z"/>
	<path class="st2" d="M87.6,16.3L86,23.9c-0.3,1.5,0.1,2.1,1.3,2.1c0.6,0,1.4-0.2,1.9-0.5l1.9-9.2H96l-2.7,13.1
		c-0.7,3.6-3.1,5.6-7.6,5.6c-1.9,0-3.9-0.3-5.4-0.9l0.8-3.7c1.4,0.7,3,1,4.6,1c1.5,0,2.6-0.7,2.8-2l0.1-0.3c-0.8,0.3-2,0.5-3.1,0.5
		c-3.7,0-5.1-1.7-4.3-5.6l1.6-7.7H87.6z"/>
</g>
</svg>
