<?xml version="1.0" encoding="UTF-8"?>
<svg id="Layer_1" data-name="Layer 1" xmlns="http://www.w3.org/2000/svg" viewBox="0 0 41.7 48">
  <defs>
    <style>
      .cls-1 {
        fill: #ec2127;
      }

      .cls-2 {
        fill: #fec214;
      }

      .cls-3 {
        fill: #0a72ba;
      }

      .cls-4 {
        fill: #fff0be;
      }
    </style>
  </defs>
  <g id="Simbol">
    <path class="cls-4" d="m20.89,47.48c-2.24-.95-4.38-2.16-6.36-3.54-2.06-1.55-4.04-3.28-5.76-5.18-3.61-3.88-6.45-8.46-8.34-13.47,2.24-7.86,2.32-14.16.26-21.06C3.78,3.02,6.88,1.99,10.14,1.38,17.19,0,24.5,0,31.55,1.38c3.27.6,6.36,1.64,9.46,2.85-2.06,6.91-1.98,13.21.26,21.06-1.89,5.01-4.73,9.58-8.34,13.47-1.72,1.9-3.7,3.63-5.76,5.18-1.98,1.38-4.04,2.59-6.28,3.54Z"/>
    <path class="cls-1" d="m27.25,44.37c6.62-4.75,11.61-11.4,14.44-18.99-1.89-6.47-2.32-11.91-1.12-17.53l-.26-.69-4.38-1.47-.43.35c-1.03,5.78-.69,11.83.95,17.53-4.13,9.67-11.35,15.45-16.42,17.7v.78l6.02,2.68,1.2-.35Z"/>
    <path class="cls-3" d="m20.89,0C14.44,0,8.08,1.12,2.06,3.28l-.17.35c1.12,3.02,1.81,6.22,1.98,9.5.17,3.71-.17,7.42-1.2,11.05v.09l.09.09c.52,1.12,1.12,2.24,1.81,3.37.69,1.12,1.38,2.16,2.24,3.11.77,1.04,1.63,1.99,2.58,2.85.95.95,1.89,1.81,2.92,2.59,1.03.86,2.15,1.64,3.27,2.42s2.32,1.47,3.61,2.16l.69.35h.34v-.17l.77-.35c-4.99-2.5-11.69-8.2-15.56-17.35,1.63-5.7,1.89-11.65.95-17.53,4.73-1.38,9.63-2.16,14.62-2.16,6.79,0,13.5,1.29,19.69,3.97.26-1.29.6-2.5.95-3.8C34.99,1.38,27.94,0,20.89,0Z"/>
    <path class="cls-2" d="m27.25,44.37c-11.52-4.23-19.95-10.88-24.24-20.03,2.15-8.72,1.29-14.16-.95-20.98h0c-.6.26-1.29.52-1.89.78,2.24,6.99,2.15,13.38-.17,21.32,3.78,10.19,11.78,18.91,20.89,22.53,2.24-1.04,4.38-2.16,6.36-3.63Z"/>
    <path d="m17.28,18.65h0c1.72-.35,3.01-1.04,3.01-3.02,0-2.5-1.98-3.63-4.38-3.63h-6.71v1.38c.86,0,1.2.26,1.2,1.38v9.84c0,.43.34.78.77.78h5.16c3.27,0,4.47-1.29,4.47-3.37-.09-2.07-1.2-3.19-3.52-3.37Zm-3.44-5.18h.77c1.38,0,1.89.52,1.89,2.16,0,1.81-.52,2.16-1.81,2.16h-.86v-4.32Zm1.12,10.36h-1.12v-4.49h1.29c1.29,0,1.89.69,1.89,2.24,0,1.81-.69,2.24-2.06,2.24h0Zm17.62-11.22l.17,3.02h-1.63c-.43-1.64-.52-2.24-1.81-2.24h-.52v11.91h-3.52v-11.83h-.52c-1.29,0-1.38.6-1.81,2.24h-1.63l.17-3.02c0-.43.34-.69.77-.69h9.63c.43,0,.69.35.77.69l-.09-.09Z"/>
  </g>
</svg>