<?xml version="1.0" encoding="utf-8"?>
<!-- Generator: Adobe Illustrator 27.5.0, SVG Export Plug-In . SVG Version: 6.00 Build 0)  -->
<svg version="1.1" id="Layer_1" xmlns="http://www.w3.org/2000/svg" xmlns:xlink="http://www.w3.org/1999/xlink" x="0px" y="0px"
	 viewBox="0 0 1080 1920" style="enable-background:new 0 0 1080 1920;" xml:space="preserve">
<style type="text/css">
	.st0{fill:none;stroke:#231F20;stroke-width:14;stroke-miterlimit:10;}
	.st1{fill:none;stroke:#231F20;stroke-width:14;stroke-linecap:round;stroke-linejoin:round;stroke-miterlimit:10;}
	.st2{fill:none;stroke:#231F20;stroke-width:14;stroke-linecap:square;stroke-linejoin:bevel;stroke-miterlimit:10;}
	.st3{fill:none;stroke:#231F20;stroke-width:14;stroke-linecap:round;stroke-miterlimit:10;}
</style>
<path class="st0" d="M758.9,352H308.4c-73.8,0-134.2,48-134.2,106.7v1.3v795.6c0,34.3,35.2,62.3,78.3,62.3h562.2
	c43.1,0,78.3-28,78.3-62.3V458.7v0C893.1,400,832.7,352,758.9,352z"/>
<path class="st0" d="M174.3,539.5c0,0,748.7-1.3,718.9-1.3"/>
<rect x="283.6" y="1317.9" class="st0" width="92.8" height="127.2"/>
<rect x="694.3" y="1317.9" class="st0" width="92.8" height="127.2"/>
<line class="st1" x1="177.6" y1="1453" x2="909.7" y2="1453"/>
<rect x="108" y="570.6" class="st2" width="62.9" height="143.1"/>
<line class="st0" x1="179.2" y1="1013.8" x2="891.5" y2="1013.8"/>
<rect x="896.4" y="570.6" class="st2" width="62.9" height="143.1"/>
<line class="st1" x1="384.6" y1="449.4" x2="712.6" y2="449.4"/>
<ellipse class="st3" cx="331" cy="1175.5" rx="61" ry="58.5"/>
<ellipse class="st3" cx="741" cy="1175.5" rx="61" ry="58.5"/>
</svg>
