<?xml version="1.0" encoding="utf-8"?>
<!-- Generator: Adobe Illustrator 27.5.0, SVG Export Plug-In . SVG Version: 6.00 Build 0)  -->
<svg version="1.1" id="Layer_1" xmlns="http://www.w3.org/2000/svg" xmlns:xlink="http://www.w3.org/1999/xlink" x="0px" y="0px"
	 viewBox="0 0 24 24" style="enable-background:new 0 0 24 24;" xml:space="preserve">
<path id="XMLID_225_" d="M-329.7,206.5c-0.9-0.7-2.4-0.7-3.4,0l-22.2,16.6l-22.2-16.6c-0.9-0.7-2.4-0.7-3.4,0
	c-0.9,0.7-0.9,1.8,0,2.5L-357,227c0.4,0.3,1.1,0.5,1.7,0.5s1.2-0.2,1.7-0.5l23.9-17.9C-328.8,208.4-328.8,207.2-329.7,206.5z"/>
<path id="XMLID_00000066498731061349646150000012092409608835764651_" d="M23.7,6.4c-0.4-0.5-1.1-0.5-1.5,0L12,18.4L1.9,6.4
	c-0.4-0.5-1.1-0.5-1.5,0c-0.4,0.5-0.4,1.3,0,1.8l10.9,12.9c0.2,0.2,0.5,0.4,0.8,0.4c0.3,0,0.6-0.1,0.8-0.4L23.7,8.2
	C24.1,7.7,24.1,6.9,23.7,6.4z"/>
</svg>
