<?xml version="1.0" encoding="utf-8"?>
<!-- Generator: Adobe Illustrator 27.5.0, SVG Export Plug-In . SVG Version: 6.00 Build 0)  -->
<svg version="1.1" id="Layer_1" xmlns="http://www.w3.org/2000/svg" xmlns:xlink="http://www.w3.org/1999/xlink" x="0px" y="0px"
	 viewBox="0 0 24 24" style="enable-background:new 0 0 24 24;" xml:space="preserve">
<g>
	<path d="M9,1v8H1V1H9 M9.3,0H0.7C0.3,0,0,0.3,0,0.7v8.7C0,9.7,0.3,10,0.7,10h8.7C9.7,10,10,9.7,10,9.3V0.7C10,0.3,9.7,0,9.3,0
		L9.3,0z"/>
</g>
<g>
	<path d="M9,15v8H1v-8H9 M9.3,14H0.7C0.3,14,0,14.3,0,14.7v8.7C0,23.7,0.3,24,0.7,24h8.7c0.4,0,0.7-0.3,0.7-0.7v-8.7
		C10,14.3,9.7,14,9.3,14L9.3,14z"/>
</g>
<g>
	<path d="M23,1v8h-8V1H23 M23.3,0h-8.7C14.3,0,14,0.3,14,0.7v8.7c0,0.4,0.3,0.7,0.7,0.7h8.7c0.4,0,0.7-0.3,0.7-0.7V0.7
		C24,0.3,23.7,0,23.3,0L23.3,0z"/>
</g>
<g>
	<path d="M23,15v8h-8v-8H23 M23.3,14h-8.7c-0.4,0-0.7,0.3-0.7,0.7v8.7c0,0.4,0.3,0.7,0.7,0.7h8.7c0.4,0,0.7-0.3,0.7-0.7v-8.7
		C24,14.3,23.7,14,23.3,14L23.3,14z"/>
</g>
</svg>
