<?xml version="1.0" encoding="utf-8"?>
<!-- Generator: Adobe Illustrator 27.5.0, SVG Export Plug-In . SVG Version: 6.00 Build 0)  -->
<svg version="1.1" id="Layer_1" xmlns="http://www.w3.org/2000/svg" xmlns:xlink="http://www.w3.org/1999/xlink" x="0px" y="0px"
	 viewBox="0 0 612 792" style="enable-background:new 0 0 612 792;" xml:space="preserve">
<style type="text/css">
	.st0{fill:#FFFFFF;stroke:#000000;stroke-width:25;stroke-linecap:round;stroke-miterlimit:10;}
	.st1{fill:none;stroke:#000000;stroke-width:25;stroke-linecap:round;stroke-miterlimit:10;}
</style>
<path class="st0" d="M75.3,231.9l455.9,0c38.3,0,69.4,31.1,69.4,69.4v233.9c0,38.3-31.1,69.4-69.4,69.4H84.4
	c-38.3,0-69.4-31.1-69.4-69.4V231.9"/>
<path class="st1" d="M15,231.9v-9.5c0-6.5,1.3-14.1,3-20.1c8.6-29.6,36.6-50.2,70-50.2H528c40.1,0,73,31.7,73,70.4"/>
<path class="st1" d="M588.5,484.1H446.6c-21.4,0-39-17.5-39-39v-30.3c0-21.4,17.5-39,39-39h141.9c6.6,0,12,5.4,12,12v84.3
	C600.5,478.7,595.1,484.1,588.5,484.1z"/>
<path class="st1" d="M18,202.2c0,17.1,25.7,29.7,57.3,29.7"/>
</svg>
